<svg xmlns="http://www.w3.org/2000/svg" viewBox="0 0 1024 1024">
  <g transform="translate(0,1024) scale(0.059755,-0.059755)" fill="#00ffa9">
    <path d="M1470 13205 l-1465 -1465 3625 -2 c3483 -3 3629 -4 3720 -22 384 -75
698 -242 961 -512 256 -263 395 -537 475 -934 16 -77 18 -225 24 -1620 l6
-1535 22 -90 c73 -298 194 -518 397 -720 215 -215 467 -350 775 -412 79 -16
257 -17 2373 -20 l2287 -3 -3 2687 c-3 2936 1 2712 -58 3028 -113 608 -375
1175 -773 1675 -123 154 -424 456 -567 569 -511 402 -1029 646 -1623 766 -381
76 73 69 -4561 72 l-4150 3 -1465 -1465z"/>
    <path d="M10 6216 c0 -1727 4 -2638 11 -2723 15 -188 54 -426 99 -608 350
-1420 1504 -2521 2935 -2804 361 -71 -72 -65 4540 -68 l4150 -3 1465 1465
1465 1465 -3568 0 c-2463 0 -3598 3 -3665 11 -499 55 -951 320 -1245 730 -130
182 -241 439 -286 664 -38 186 -41 326 -41 1760 0 1506 1 1462 -55 1660 -34
120 -150 350 -229 455 -177 236 -435 421 -716 514 -232 76 -26 70 -2577 74
l-2283 2 0 -2594z"/>
  </g>
</svg>